<?xml version="1.0" encoding="UTF-8" standalone="no"?>
<svg
   xmlns:dc="http://purl.org/dc/elements/1.1/"
   xmlns:cc="http://creativecommons.org/ns#"
   xmlns:rdf="http://www.w3.org/1999/02/22-rdf-syntax-ns#"
   xmlns:svg="http://www.w3.org/2000/svg"
   xmlns="http://www.w3.org/2000/svg"
   xmlns:sodipodi="http://sodipodi.sourceforge.net/DTD/sodipodi-0.dtd"
   xmlns:inkscape="http://www.inkscape.org/namespaces/inkscape"
   enable-background="new 0 0 2682 1592.058"
   version="1.1"
   viewBox="0 0 2682 1592.058"
   id="svg3823"
   sodipodi:docname="logo.svg"
   inkscape:version="0.92.3 (2405546, 2018-03-11)">
  <metadata
     id="metadata3829">
    <rdf:RDF>
      <cc:Work
         rdf:about="">
        <dc:format>image/svg+xml</dc:format>
        <dc:type
           rdf:resource="http://purl.org/dc/dcmitype/StillImage" />
      </cc:Work>
    </rdf:RDF>
  </metadata>
  <defs
     id="defs3827" />
  <sodipodi:namedview
     pagecolor="#ffffff"
     bordercolor="#666666"
     borderopacity="1"
     objecttolerance="10"
     gridtolerance="10"
     guidetolerance="10"
     inkscape:pageopacity="0"
     inkscape:pageshadow="2"
     inkscape:window-width="1920"
     inkscape:window-height="1061"
     id="namedview3825"
     showgrid="false"
     inkscape:zoom="0.55337181"
     inkscape:cx="1341"
     inkscape:cy="796.02899"
     inkscape:window-x="1366"
     inkscape:window-y="19"
     inkscape:window-maximized="0"
     inkscape:current-layer="svg3823" />
  <path
     d="m118.12 803.78c70.215-255.84 140.24-511.76 210.58-767.57 67.638 270.11 134.96 540.3 202.63 810.41-134.3-36.101-274.39-50.05-413.2-42.84z"
     id="path3791" />
  <path
     d="m2318.6 85.216c36.253 159.58 72.507 319.15 108.76 478.72 20.199 89.437 40.869 178.77 60.765 268.28-23.585 0.152-47.187-0.522-70.754 0.657-75.775 3.251-150.25 18.918-224.14 35.04-16.627 3.74-33.204 7.631-49.68 11.877 58.405-264.84 116.69-529.72 175.05-794.57z"
     id="path3793" />
  <path
     d="m1521.4 818.8c36.068-157.77 72.052-315.55 108.17-473.3 40.701 156.16 81.435 312.33 122.17 468.48-76.499-8.844-154.33-7.816-230.34 4.818z"
     id="path3795" />
  <path
     d="m680.23 423.09c36.59 175.2 72.776 350.47 109.32 525.69-68.733-35.158-139.57-66.627-213.53-89.184 34.703-145.52 69.424-291.02 104.21-436.5z"
     id="path3797" />
  <path
     d="m1780.7 817.83c15.246-56.62 30.458-113.24 45.738-169.84 12.904 62.416 25.825 124.81 38.713 187.21-27.814-7.278-56.031-13.056-84.451-17.369z"
     id="path3799" />
  <path
     d="m1226 931.98c10.495-59.366 20.384-118.83 30.896-178.2 12.214 44.255 24.124 88.595 36.304 132.85 0.404 2.308 1.718 4.666 1.381 7.059-23.298 11.943-46.327 24.494-68.581 38.291z"
     id="path3801" />
  <path
     d="m1158.3 809.64c8.726 49.815 17.47 99.629 25.96 149.48-27.156 18.565-53.268 38.645-78.268 60.007 17.486-69.811 35.023-139.62 52.308-209.48z"
     id="path3803" />
  <path
     d="m1435.2 909c79.177-25.758 163.02-36.118 246.12-32.8 96.495 3.386 192.45 24.848 280.71 64.151-62.264 25.691-122.59 55.761-183.04 85.411-29.599 14.639-59.366 28.976-88.628 44.272-2.207 1.381-4.818 0.691-7.193 0.606-35.36-3.251-71.024-1.432-106.17 3.167-65.869 8.625-130.16 28.875-189.18 59.316-42.166 21.597-81.519 48.467-117.82 78.841-56.604-31.907-112.85-64.42-169.42-96.411 50.269-49.747 106.42-93.564 167.05-130.02 52.711-31.739 108.86-57.986 167.57-76.533z"
     id="path3805" />
  <path
     d="m163.45 886.36c157.95-2.847 317 23.046 464.3 80.727 58.979 23.181 115.26 52.493 171.78 81.014 139.42 71.31 275.13 149.53 411.13 227.1 63.292 35.916 126.65 71.765 191.1 105.58 57.934 30.29 116.51 59.619 177.22 83.979 90.38 35.765 183.12 65.33 276.84 90.987-144.71 0.017-289.42-0.017-434.13 0.017-3.942 0.219-7.362-2.005-10.782-3.571-114.98-57.716-226.04-122.78-337.9-186.22-64.858-37.045-129.9-73.753-195.57-109.33-82.665-44.71-165.97-88.359-251.23-127.93-167.91-75.926-353.13-110.44-536.99-108.68-9.316-0.084-18.649 0.809-27.948-0.034 0.371-42.267 0.202-84.552 0.084-126.82 33.81-4.532 68.008-5.863 102.09-6.823z"
     id="path3807" />
  <path
     d="m2288 917.07c78.571-15.583 159.18-22.372 239.18-16.459 31.385 2.409 62.736 6.52 93.379 13.848 0.034 49.158-0.118 98.332 0.084 147.49-86.876-4.919-174.41-5.66-260.78 6.25-80.239 10.563-160.09 25.792-237.47 49.865-64.909 20.064-127.68 46.833-187.72 78.571-107.63 56.907-208.41 125.69-307.14 196.63-64.201-24.41-125.71-55.256-186.54-86.994 108.44-78.706 222.49-150.18 343.46-208.07 59.703-29.38 119.26-59.164 180.24-85.832 62.736-27.712 127.76-50.286 194.29-66.998 42.671-10.899 85.798-19.895 129.01-28.301z"
     id="path3809" />
  <path
     d="m61.328 1105.3c42.436-2.308 85.023-0.876 127.43 1.769 146.04 10.007 291.07 44.761 423.4 107.98 140.77 67.469 277.36 143.26 412.94 220.55 56.924 32.395 113.73 65.01 170.87 97.018 14.083 7.766 27.931 15.97 42.284 23.231-88.19-0.219-176.4-0.051-264.59-0.084-4.885-0.286-10.259 1.028-14.606-1.803-129.14-73.298-259.08-145.42-392.79-210.14-103.18-51.129-213.93-86.708-327.32-106.5-58.625-10.546-118.01-16.577-177.48-19.323-0.084-37.568 0.186-75.135-0.134-112.7z"
     id="path3811" />
  <path
     d="m2359.3 1136.2c86.388-12.55 174.11-12.129 261.05-6.604 0.37 41.914 0 83.827 0.185 125.76-46.462-0.017-92.991 1.129-139.22 6.098-75.101 8.625-149.86 21.277-222.98 40.667-64.875 17.2-128.18 40.364-188.63 69.525-63.949 30.526-125 66.728-184.77 104.7-60.731-16.459-120.99-34.737-180.52-55.138 51.887-36.809 104.65-72.439 158.73-105.95 60.579-37.214 122.93-71.883 188.46-99.629 97.86-41.863 202.53-65.246 307.7-79.431z"
     id="path3813" />
  <path
     d="m1333.2 1247.6c66.307-51.819 144.84-88.224 227.78-103.22-63.881 39.235-125.62 81.89-185.8 126.57-13.965-7.85-28.066-15.448-41.981-23.349z"
     id="path3815" />
  <path
     d="m61.395 1302.6c128.86 5.34 257.14 30.862 377.61 77.139 48.349 18.464 94.676 41.678 140.97 64.69 63.561 31.907 126.36 65.263 188.71 99.477 7.328 3.925 14.437 8.288 21.968 11.877-69.103-0.27-138.24 0.32-207.33-0.303-28.15-13.123-55.744-27.577-83.979-40.6-137.36-64.454-287.21-100.56-438.32-111.62 0.321-33.541 0.657-67.099 0.371-100.66z"
     id="path3817" />
  <path
     d="m2476.6 1329.9c47.725-5.627 95.872-7.497 143.9-6.755 0.219 77.51 0.825 155.02 0.169 232.53-127.85 0.253-255.71 0.135-383.56 0.05-88.342-15.145-175.82-34.889-262.95-55.829 26.887-14.976 53.217-31.014 80.576-45.148 60.849-32.328 124.65-59.249 190.72-78.908 75.386-22.557 153.13-36.321 231.15-45.94z"
     id="path3819" />
  <path
     d="m61.243 1555.5c-0.489-22.557-0.067-45.098-0.202-67.655 64.774 4.953 129.16 15.061 192.32 30.206 42.604 10.007 84.349 23.214 125.67 37.534-101.13 0.303-202.26 0.017-303.38 0.135-4.8 0.016-9.601-0.068-14.403-0.22z"
     id="path3821" />
  <path
     style="fill:#c8ab37;stroke-width:1.80710328"
     d="m 62.293724,1521.8801 v -33.4936 l 8.583741,0.9754 c 4.721057,0.5365 20.375089,2.2406 34.786735,3.787 82.00836,8.7995 177.51727,30.1579 252.99446,56.5764 l 15.36038,5.3764 -155.86266,0.136 -155.862656,0.1361 z"
     id="path3939"
     inkscape:connector-curvature="0" />
  <path
     style="fill:#c8ab37;stroke-width:1.80710328"
     d="m 551.11516,1538.9836 c -70.10894,-34.6962 -119.49425,-55.6373 -174.38547,-73.9458 -89.80448,-29.9534 -186.01268,-50.3348 -278.2939,-58.9557 -17.393369,-1.6249 -32.640803,-3.2343 -33.883187,-3.5765 -1.736049,-0.4782 -2.258879,-11.9284 -2.258879,-49.4707 v -48.8485 l 10.390844,0.023 c 13.937078,0.031 66.666282,4.6054 93.517592,8.1134 121.14268,15.8265 234.44451,48.2669 340.54955,97.5056 54.63828,25.3552 159.44107,79.2135 246.75902,126.8096 l 34.33496,18.7157 -102.10134,-0.1362 -102.10133,-0.1363 -32.52786,-16.0977 z"
     id="path3941"
     inkscape:connector-curvature="0" />
  <path
     style="fill:#c8ab37;stroke-width:1.80710328"
     d="M 913.43937,1527.2173 C 855.99761,1494.7258 757.63096,1440.7982 709.2367,1415.2671 665.40757,1392.1445 551.49617,1335.1999 530.03165,1325.6822 390.34976,1263.7449 252.29466,1230.0158 93.466256,1219.0224 l -31.172532,-2.1576 v -55.9835 -55.9834 l 60.989736,1.0128 c 63.20792,1.0496 97.02618,3.5453 154.05555,11.3687 90.21463,12.3758 183.16546,36.3529 263.83708,68.0581 83.19716,32.6977 249.72066,118.5208 445.45096,229.5769 36.77455,20.8656 103.45665,58.6571 148.18245,83.9811 44.7258,25.324 85.3856,48.3734 90.3552,51.2211 l 9.0355,5.1775 -135.5327,0.016 -135.53279,0.016 -49.69534,-28.1098 z"
     id="path3943"
     inkscape:connector-curvature="0" />
  <path
     style="fill:#c8ab37;stroke-width:1.80710328"
     d="m 1383.2862,1537.0986 c -55.28,-28.575 -118.4558,-63.2396 -211.4311,-116.0126 C 984.23294,1314.5911 950.70113,1295.7064 901.85244,1269.0239 763.78134,1193.6056 650.75656,1136.9363 586.35367,1110.8364 435.64413,1049.7598 269.08691,1018.7889 90.755601,1018.6813 l -28.461877,-0.017 v -62.14393 -62.14395 l 5.873086,-1.05355 c 30.877601,-5.53901 156.23538,-7.50018 209.1722,-3.27242 124.41652,9.93645 235.60765,34.21888 340.63897,74.39031 40.27963,15.40579 67.26606,27.74272 138.28018,63.21524 118.36222,59.1235 209.72438,108.8945 414.69344,225.911 233.2301,133.1507 334.29,184.539 444.5474,226.0498 43.2074,16.2671 130.3451,45.2744 175.289,58.3519 18.8842,5.4949 39.6207,11.5829 46.0811,13.529 l 11.7462,3.5382 -215.0453,0.139 -215.0453,0.1389 z"
     id="path3945"
     inkscape:connector-curvature="0" />
  <path
     style="fill:#c8ab37;stroke-width:1.80710328"
     d="m 505.93758,839.49984 c -30.09823,-7.79756 -86.58723,-18.93864 -121.97947,-24.05748 -72.25461,-10.45032 -128.617,-14.08158 -206.46274,-13.30182 -31.55719,0.3161 -57.37618,-0.0866 -57.37553,-0.89495 0.001,-1.77504 203.39251,-743.792401 206.52575,-753.45335 2.09019,-6.444829 7.20082,13.223315 102.71702,395.30384 57.36495,229.46927 99.64497,401.97182 98.48525,401.81986 -1.11768,-0.14637 -10.97731,-2.58369 -21.91028,-5.4161 z"
     id="path3947"
     inkscape:connector-curvature="0" />
  <path
     style="fill:#c8ab37;stroke-width:1.80710328"
     d="M 759.10217,932.7522 C 707.96032,907.40277 641.3715,879.73313 595.7394,864.8701 c -13.97217,-4.55093 -18.45358,-6.75186 -17.94063,-8.81107 0.37606,-1.50967 23.39457,-98.04058 51.15223,-214.51312 27.75767,-116.47255 50.9398,-211.20993 51.51584,-210.52753 0.57604,0.6824 21.96421,102.07709 47.52926,225.32153 25.56506,123.24444 49.58159,238.92164 53.37006,257.06044 3.78848,18.1388 6.38961,32.91749 5.78029,32.84152 -0.60932,-0.0759 -13.22925,-6.14632 -28.04428,-13.48967 z"
     id="path3949"
     inkscape:connector-curvature="0" />
  <path
     style="fill:#c8ab37;stroke-width:1.80710328"
     d="m 1108.6065,1013.3771 c 0,-3.6005 49.4293,-199.72019 49.8901,-197.94801 0.2493,0.95866 5.9191,33.43474 12.5996,72.16908 l 12.1463,70.42607 -5.2419,4.01534 c -2.8831,2.20843 -15.0003,11.3334 -26.9272,20.27771 -11.9268,8.94432 -26.3611,20.03411 -32.076,24.64391 -5.715,4.6098 -10.3909,7.497 -10.3909,6.4159 z"
     id="path3951"
     inkscape:connector-curvature="0" />
  <path
     style="fill:#c8ab37;stroke-width:1.80710328"
     d="m 1227.8753,928.02735 c 0,-4.07228 27.3571,-161.53776 28.6297,-164.79071 0.8586,-2.19457 7.3277,18.83496 18.9007,61.44151 9.6774,35.62794 17.5796,65.72249 17.5603,66.87678 -0.019,1.15428 -9.3163,7.01562 -20.6601,13.02518 -11.3439,6.00957 -25.9814,14.20485 -32.5279,18.21174 -6.5465,4.00688 -11.9027,6.36286 -11.9027,5.2355 z"
     id="path3953"
     inkscape:connector-curvature="0" />
  <path
     style="fill:#c8ab37;stroke-width:1.80710328"
     d="m 1523.0872,814.98384 c 0.5183,-1.77817 24.5985,-106.87384 53.5115,-233.54592 28.913,-126.67208 52.7464,-230.48707 52.9631,-230.69997 0.2167,-0.21291 27.4473,103.34561 60.5124,230.13004 33.0652,126.78444 59.7656,230.86997 59.3344,231.30118 -0.4312,0.43123 -9.5942,-0.11132 -20.3621,-1.20557 -33.3926,-3.39353 -89.7625,-4.33378 -124.3901,-2.07485 -30.0247,1.95867 -68.2487,6.03826 -78.3014,8.35703 -3.4045,0.78527 -4.0299,0.35242 -3.2678,-2.26194 z"
     id="path3955"
     inkscape:connector-curvature="0" />
  <path
     style="fill:#c8ab37;stroke-width:1.80710328"
     d="m 1845.9047,829.60136 c -9.4422,-2.2563 -27.3325,-5.92821 -39.7563,-8.1598 -12.4239,-2.23159 -22.9265,-4.30727 -23.3392,-4.61262 -1.0359,-0.76648 42.0708,-161.35077 43.3187,-161.37393 0.9486,-0.0176 38.1921,177.52431 37.3432,178.01712 -0.2194,0.12738 -8.1243,-1.61447 -17.5664,-3.87077 z"
     id="path3957"
     inkscape:connector-curvature="0" />
  <path
     style="fill:#c8ab37;stroke-width:1.80710328"
     d="m 2146.2429,872.74053 c 1.1005,-7.10841 172.0923,-782.75698 172.4707,-782.35655 0.2766,0.292845 136.4021,599.1421 159.2901,700.75649 l 8.7899,39.02411 -42.6915,1.16605 c -81.6268,2.22951 -159.8235,14.03006 -277.9898,41.95101 -10.308,2.43564 -19.1686,4.42842 -19.6903,4.42842 -0.5216,0 -0.6022,-2.23629 -0.1791,-4.96953 z"
     id="path3959"
     inkscape:connector-curvature="0" />
  <path
     style="fill:#c8ab37;stroke-width:1.80710328"
     d="m 1595.6209,1379.4023 c -14.9087,-6.2819 -36.4584,-15.6928 -47.8883,-20.913 -29.9359,-13.6722 -103.0049,-50.8726 -103.0049,-52.4412 0,-1.977 43.7881,-32.7409 93.9694,-66.0193 87.342,-57.922 151.1591,-94.1703 261.1264,-148.3204 162.5982,-80.0667 220.5009,-104.72234 307.6824,-131.01477 78.7827,-23.75948 200.5049,-49.0065 275.1084,-57.06162 37.0795,-4.00357 129.1133,-4.51413 160.8322,-0.89223 23.6894,2.70503 71.6726,10.52105 74.2074,12.08771 1.0039,0.62041 1.691,30.18914 1.691,72.77074 l 2e-4,71.72567 -95.3249,0.021 c -102.0506,0.023 -112.9238,0.6645 -184.7764,10.9059 -112.2227,15.9956 -210.7412,40.9424 -294.5578,74.5878 -107.6144,43.1982 -226.431,112.2088 -378.4519,219.8109 -20.4189,14.4527 -38.5611,26.2544 -40.316,26.226 -1.7549,-0.029 -15.3886,-5.1915 -30.2972,-11.4734 z"
     id="path3961"
     inkscape:connector-curvature="0" />
  <path
     style="fill:#c8ab37;stroke-width:1.80710328"
     d="m 1185.2883,1162.7565 -83.2469,-47.4124 21.8054,-20.2221 c 117.1903,-108.68154 256.6383,-180.83509 400.7461,-207.35512 43.0464,-7.92178 75.7285,-10.63006 127.9517,-10.60301 67.7147,0.0351 123.2281,6.5028 184.2382,21.46505 29.5427,7.24511 80.9871,23.99368 106.373,34.63147 l 16.8351,7.05461 -12.3173,5.1582 c -38.5379,16.1387 -220.3399,103.17 -247.2408,118.3577 l -9.0355,5.1013 -40.6598,-0.055 c -42.5363,-0.057 -70.1795,2.4292 -106.6191,9.5897 -95.7907,18.8234 -183.3501,59.6648 -260.9971,121.7403 -6.8862,5.5053 -12.9852,9.9987 -13.5533,9.9854 -0.568,-0.013 -38.4939,-21.3597 -84.2797,-47.4365 z"
     id="path3963"
     inkscape:connector-curvature="0" />
  <path
     style="fill:#c8ab37;stroke-width:1.80710328"
     d="m 1354.8899,1258.5732 -20.0632,-11.0575 7.7977,-5.954 c 42.4664,-32.4255 110.2085,-66.9991 161.8311,-82.5939 19.0619,-5.7585 47.0217,-12.4713 47.9748,-11.5183 0.3884,0.3885 -5.5921,4.664 -13.2901,9.5011 -38.0139,23.8867 -105.3535,69.8453 -143.2043,97.7355 -9.4421,6.9573 -18.0259,13.1661 -19.0751,13.7971 -1.0492,0.6311 -10.9361,-3.8284 -21.9709,-9.91 z"
     id="path3965"
     inkscape:connector-curvature="0" />
  <path
     style="fill:#c8ab37;stroke-width:1.80710328"
     d="m 1843.9513,1463.8473 c -43.0174,-12.3762 -83.4939,-24.9265 -116.9488,-36.2615 l -20.4151,-6.917 30.3541,-20.9757 c 233.4976,-161.3543 370.0977,-221.931 576.0994,-255.477 89.7547,-14.6159 137.7389,-18.093 227.695,-16.4994 34.7867,0.6162 66.7047,1.6476 70.9288,2.292 l 7.6802,1.1717 v 62.1071 62.1071 l -35.6903,0.018 c -92.3951,0.046 -208.1737,16.1759 -317.923,44.2912 -120.8247,30.9527 -229.8622,80.498 -366.6637,166.6075 l -14.6031,9.1919 z"
     id="path3967"
     inkscape:connector-curvature="0" />
  <path
     style="fill:#c8ab37;stroke-width:1.80710328"
     d="m 2226.2999,1553.1875 c -78.9821,-15.3763 -107.5095,-21.1579 -140.9541,-28.5669 -46.9282,-10.3959 -101.9009,-23.1438 -105.6733,-24.5051 -3.3919,-1.2239 52.329,-32.9119 99.3485,-56.4986 105.1003,-52.7223 203.5819,-83.2901 335.2176,-104.0485 66.7219,-10.5217 123.1855,-15.5038 175.71,-15.5038 h 29.3963 v 115.6546 115.6546 l -192.0048,-0.2136 c -116.1671,-0.1293 -195.5735,-0.9085 -201.0402,-1.9727 z"
     id="path3969"
     inkscape:connector-curvature="0" />
  <path
     style="fill:#668000;stroke-width:1.80710328"
     d="m 505.03403,838.6051 c -25.41276,-6.48247 -93.04739,-19.7593 -121.97947,-23.9448 -68.65764,-9.93246 -112.99834,-12.84858 -195.36763,-12.84858 -49.73887,0 -64.25984,-0.50741 -64.93586,-2.26909 -0.81461,-2.12284 43.56362,-165.8482 144.61674,-533.53703 23.49164,-85.47598 46.46191,-169.056186 51.04503,-185.733782 4.58313,-16.677596 8.95742,-29.688739 9.72067,-28.913652 0.76323,0.775087 5.52778,16.859983 10.5879,35.744212 18.55623,69.251282 187.99786,749.870082 187.99786,755.156002 0,1.6419 -2.73001,1.18199 -21.68524,-3.65328 z"
     id="path3971"
     inkscape:connector-curvature="0" />
  <path
     style="fill:#668000;stroke-width:1.80710328"
     d="M 754.41428,929.80321 C 702.27382,904.51553 647.12973,881.539 601.07323,865.91161 c -11.28543,-3.82925 -20.87866,-7.89966 -21.31831,-9.04535 -0.78429,-2.04385 28.44683,-126.38195 75.18174,-319.79452 12.9686,-53.67061 23.57928,-98.35575 23.57928,-99.30032 0,-1.08466 0.60917,-1.0849 1.65341,-6.5e-4 1.73687,1.80341 14.6424,62.50586 69.52022,326.99534 36.3523,175.20381 37.28011,179.87927 35.65055,179.65248 -0.60975,-0.0849 -14.52638,-6.6618 -30.92584,-14.61538 z"
     id="path3973"
     inkscape:connector-curvature="0" />
  <path
     style="fill:#668000;stroke-width:1.80710328"
     d="m 1110.4136,1009.5874 c 0,-2.4664 44.8011,-181.14373 46.7205,-186.33235 0.844,-2.28135 5.7564,21.81049 13.3685,65.56209 6.6188,38.04283 11.8671,69.2597 11.6629,69.37083 -0.2042,0.11113 -15.4154,11.56881 -33.8027,25.46151 -38.2939,28.93342 -37.9492,28.69772 -37.9492,25.93792 z"
     id="path3975"
     inkscape:connector-curvature="0" />
  <path
     style="fill:#668000;stroke-width:1.80710328"
     d="m 1230.3029,918.22167 c 2.6385,-19.62477 25.1091,-146.38694 26.3421,-148.60287 1.53,-2.74954 9.3155,22.46224 24.635,79.77532 7.8266,29.28081 10.0671,40.20789 8.6914,42.3888 -1.5331,2.43057 -49.8298,30.82669 -58.3173,34.28778 -2.0753,0.84629 -2.3252,-0.60506 -1.3512,-7.84903 z"
     id="path3977"
     inkscape:connector-curvature="0" />
  <path
     style="fill:#668000;stroke-width:1.80710328"
     d="m 1524.7553,811.54547 c 0.8977,-4.39529 65.1313,-284.77347 95.1309,-415.24427 5.0044,-21.76466 9.3671,-39.84024 9.6948,-40.16796 0.5858,-0.58586 26.794,98.36349 67.5481,255.02909 34.2082,131.50202 51.1293,198.54284 50.3173,199.35488 -0.4228,0.42275 -15.8061,-0.25815 -34.1851,-1.51313 -54.3689,-3.71249 -131.365,-0.97121 -180.7561,6.43542 l -8.8153,1.32195 z"
     id="path3979"
     inkscape:connector-curvature="0" />
  <path
     style="fill:#668000;stroke-width:1.80710328"
     d="m 1857.4691,831.42569 c -1.0938,-0.45181 -17.614,-3.96437 -36.7114,-7.80569 -19.0974,-3.84133 -35.2019,-7.4635 -35.7876,-8.04927 -1.1924,-1.19232 5.4898,-27.87845 25.9234,-103.52838 7.63,-28.24835 14.5082,-50.71115 15.2848,-49.91733 1.6681,1.70507 35.9903,162.78273 35.9903,168.90632 0,1.60067 -1.4785,1.72473 -4.6995,0.39435 z"
     id="path3981"
     inkscape:connector-curvature="0" />
  <path
     style="fill:#668000;stroke-width:1.80710328"
     d="m 2147.6889,872.74053 c 0,-3.55483 12.7646,-62.17887 78.6097,-360.96888 74.5002,-338.06521 91.9341,-416.465571 92.4866,-415.913073 0.6379,0.637907 25.5077,109.643843 104.5797,458.379993 33.2402,146.60126 60.8438,268.30822 61.3414,270.45993 0.8487,3.67077 0.096,3.97332 -12.1928,4.90287 -7.2035,0.54488 -26.6772,1.42053 -43.275,1.94591 -65.5108,2.07365 -138.6412,12.90415 -238.0953,35.26154 -22.2498,5.00177 -41.1288,9.09414 -41.9533,9.09414 -0.8244,0 -1.4999,-1.4231 -1.501,-3.16243 z"
     id="path3983"
     inkscape:connector-curvature="0" />
</svg>
